<svg width="230" height="105" viewBox="0 0 230 105" fill="none" xmlns="http://www.w3.org/2000/svg">
<path d="M16.4211 71.6289L3.30108 98.8176C2.12968 101.245 4.58775 103.831 7.03398 102.745L17.846 97.9437C18.5814 97.6171 19.4186 97.6171 20.154 97.9437L30.966 102.745C33.4123 103.831 35.8703 101.245 34.6989 98.8176L21.5789 71.6289C20.5308 69.457 17.4692 69.457 16.4211 71.6289Z" fill="#7C1808"/>
<path d="M211.421 71.6289L198.301 98.8176C197.13 101.245 199.588 103.831 202.034 102.745L212.846 97.9437C213.581 97.6171 214.419 97.6171 215.154 97.9437L225.966 102.745C228.412 103.831 230.87 101.245 229.699 98.8176L216.579 71.6289C215.531 69.457 212.469 69.457 211.421 71.6289Z" fill="#7C1808"/>
<path d="M163.722 80.1072H172.937V103.329C172.551 103.434 171.954 103.54 171.147 103.645C170.339 103.75 169.514 103.803 168.672 103.803C166.847 103.803 165.565 103.487 164.828 102.855C164.091 102.188 163.722 101.047 163.722 99.4325V80.1072ZM172.937 92.2711H163.722V71.366C164.143 71.2958 164.758 71.208 165.565 71.1027C166.408 70.9623 167.215 70.8921 167.987 70.8921C169.743 70.8921 171.006 71.1905 171.779 71.7873C172.551 72.3841 172.937 73.5425 172.937 75.2627V92.2711ZM183.047 80.1072H192.263V103.329C191.876 103.434 191.28 103.54 190.472 103.645C189.665 103.75 188.84 103.803 187.997 103.803C186.172 103.803 184.891 103.487 184.153 102.855C183.416 102.188 183.047 101.047 183.047 99.4325V80.1072ZM192.263 92.2711H183.047V71.366C183.469 71.2958 184.083 71.208 184.891 71.1027C185.733 70.9623 186.54 70.8921 187.313 70.8921C189.068 70.8921 190.332 71.208 191.104 71.8399C191.876 72.4718 192.263 73.6478 192.263 75.368V92.2711ZM188.366 91.0599H167.671V83.7932H188.366V91.0599Z" fill="#7C1808"/>
<path d="M158.705 76.1051C158.705 76.9827 158.476 77.7726 158.02 78.4747C157.564 79.1417 157.037 79.6683 156.44 80.0544C155.563 79.4577 154.597 78.9486 153.544 78.5274C152.491 78.1061 151.28 77.8955 149.911 77.8955C148.12 77.8955 146.593 78.2816 145.33 79.0539C144.101 79.7912 143.153 80.8794 142.486 82.3187C141.854 83.7229 141.538 85.4255 141.538 87.4265C141.538 90.5157 142.31 92.8678 143.855 94.4826C145.435 96.0974 147.611 96.9049 150.385 96.9049C151.824 96.9049 153.035 96.7118 154.018 96.3256C155.036 95.9395 156.001 95.5007 156.914 95.0092C157.511 95.4656 157.967 96.0448 158.283 96.7469C158.634 97.449 158.81 98.2564 158.81 99.1691C158.81 99.9766 158.599 100.714 158.178 101.381C157.757 102.048 157.037 102.609 156.019 103.066C155.387 103.347 154.492 103.627 153.333 103.908C152.175 104.189 150.771 104.33 149.121 104.33C145.961 104.33 143.083 103.733 140.485 102.539C137.922 101.346 135.869 99.5026 134.324 97.0102C132.815 94.5177 132.06 91.3232 132.06 87.4265C132.06 83.7756 132.797 80.7039 134.271 78.2114C135.746 75.6839 137.729 73.7706 140.222 72.4718C142.749 71.1378 145.523 70.4708 148.542 70.4708C150.683 70.4708 152.509 70.7165 154.018 71.208C155.528 71.6994 156.686 72.3664 157.493 73.209C158.301 74.0515 158.705 75.0169 158.705 76.1051Z" fill="#7C1808"/>
<path d="M97.9004 82.3188H106.378C106.519 83.9336 106.606 85.4782 106.642 86.9527C106.712 88.4271 106.747 89.8313 106.747 91.1653C106.747 92.4641 106.747 93.7455 106.747 95.0093V103.382C106.396 103.452 105.817 103.54 105.009 103.645C104.237 103.75 103.447 103.803 102.64 103.803C100.884 103.803 99.6556 103.505 98.9535 102.908C98.2514 102.276 97.9004 101.17 97.9004 99.5905V82.3188ZM126.809 92.3237H118.332C118.121 89.8664 117.998 87.6021 117.963 85.5309C117.963 83.4597 117.963 81.4938 117.963 79.6333V71.3134C118.349 71.2431 118.928 71.1554 119.701 71.0501C120.473 70.9447 121.263 70.8921 122.07 70.8921C123.825 70.8921 125.054 71.208 125.756 71.8399C126.458 72.4367 126.809 73.525 126.809 75.1047V92.3237ZM126.809 89.4802V102.276C126.318 102.732 125.598 103.101 124.65 103.382C123.738 103.663 122.632 103.803 121.333 103.803C120.034 103.803 118.805 103.61 117.647 103.224C116.489 102.838 115.541 101.907 114.803 100.433L109.59 89.7962C109.239 89.059 108.906 88.3744 108.59 87.7425C108.309 87.0755 108.028 86.391 107.747 85.6889C107.467 84.9868 107.151 84.2145 106.8 83.3719L97.9004 85.3203V73.1037C98.3919 72.4016 99.1466 71.875 100.165 71.524C101.183 71.1729 102.271 70.9974 103.429 70.9974C104.728 70.9974 105.957 71.208 107.115 71.6293C108.309 72.0155 109.257 72.9282 109.959 74.3675L115.225 85.0043C115.576 85.7064 115.892 86.391 116.173 87.058C116.489 87.725 116.787 88.4095 117.068 89.1116C117.384 89.8137 117.7 90.586 118.016 91.4285L126.809 89.4802Z" fill="#7C1808"/>
<path d="M69.0518 80.1072H78.0036V103.066C77.6174 103.171 77.0557 103.276 76.3185 103.382C75.5813 103.487 74.7914 103.54 73.9489 103.54C72.4394 103.54 71.2458 103.101 70.3682 102.223C69.4906 101.346 69.0518 100.152 69.0518 98.6426V80.1072ZM78.0036 94.9039H69.0518V76.3685C69.0518 74.8589 69.4906 73.6654 70.3682 72.7878C71.2458 71.9101 72.4394 71.4713 73.9489 71.4713C74.7914 71.4713 75.5813 71.524 76.3185 71.6293C77.0557 71.7346 77.6174 71.8399 78.0036 71.9452V94.9039ZM73.9489 90.744V83.5826H89.8515C90.0972 83.9687 90.3079 84.4602 90.4834 85.057C90.694 85.6538 90.7993 86.3207 90.7993 87.058C90.7993 88.3568 90.5185 89.3047 89.9568 89.9015C89.3951 90.4631 88.6228 90.744 87.6399 90.744H73.9489ZM73.9489 103.54V96.273H91.5365C91.7823 96.6592 91.9929 97.1682 92.1684 97.8001C92.3791 98.432 92.4844 99.1165 92.4844 99.8537C92.4844 101.153 92.2035 102.1 91.6419 102.697C91.0802 103.259 90.3079 103.54 89.3249 103.54H73.9489ZM73.9489 78.6854V71.4713H91.3259C91.5717 71.8575 91.7823 72.3489 91.9578 72.9457C92.1684 73.5425 92.2738 74.2095 92.2738 74.9467C92.2738 76.2456 91.9929 77.1934 91.4312 77.7902C90.8695 78.387 90.0972 78.6854 89.1143 78.6854H73.9489Z" fill="#7C1808"/>
<path d="M54.7927 102.329C54.3012 102.75 53.5289 103.118 52.4757 103.434C51.4577 103.75 50.3343 103.908 49.1056 103.908C47.6663 103.908 46.4025 103.698 45.3143 103.276C44.2611 102.82 43.5415 102.206 43.1553 101.433C42.6639 100.45 42.0846 99.1516 41.4176 97.5368C40.7506 95.9219 40.031 94.0965 39.2587 92.0604C38.4864 90.0243 37.714 87.918 36.9417 85.7415C36.1694 83.565 35.4498 81.406 34.7828 79.2646C34.1509 77.0881 33.6068 75.0871 33.1504 73.2616C33.6419 72.7702 34.344 72.3313 35.2567 71.9452C36.2045 71.5239 37.205 71.3133 38.2582 71.3133C39.5571 71.3133 40.6102 71.5941 41.4176 72.1558C42.2601 72.7175 42.8745 73.718 43.2606 75.1573C44.2085 78.5976 45.1563 81.8975 46.1042 85.0569C47.0871 88.1813 48.1051 91.446 49.1583 94.8512H49.4742C50.1061 92.6747 50.738 90.3402 51.3699 87.8478C52.0369 85.3553 52.7039 82.8102 53.3709 80.2124C54.0379 77.5795 54.6698 74.9818 55.2666 72.4191C55.8985 72.1032 56.583 71.8399 57.3202 71.6292C58.0574 71.4186 58.8648 71.3133 59.7425 71.3133C61.0413 71.3133 62.1472 71.6117 63.0599 72.2085C63.9726 72.7702 64.429 73.718 64.429 75.052C64.429 75.7892 64.2535 76.895 63.9024 78.3694C63.5514 79.8438 63.0774 81.5289 62.4807 83.4245C61.8839 85.2851 61.2169 87.2159 60.4797 89.2169C59.7776 91.1827 59.0579 93.0609 58.3207 94.8512C57.6186 96.6416 56.9516 98.2038 56.3197 99.5378C55.6878 100.872 55.1788 101.802 54.7927 102.329Z" fill="#7C1808"/>
<path d="M161 77.96H170.363V100.539C169.971 100.642 169.365 100.744 168.544 100.846C167.724 100.949 166.886 101 166.03 101C164.175 101 162.873 100.693 162.124 100.078C161.375 99.4299 161 98.3205 161 96.7504V77.96ZM170.363 89.7872H161V69.4608C161.428 69.3925 162.052 69.3072 162.873 69.2048C163.729 69.0683 164.549 69 165.334 69C167.117 69 168.402 69.2901 169.186 69.8704C169.971 70.4507 170.363 71.5771 170.363 73.2496V89.7872ZM180.637 77.96H190V100.539C189.608 100.642 189.001 100.744 188.181 100.846C187.36 100.949 186.522 101 185.666 101C183.811 101 182.509 100.693 181.76 100.078C181.011 99.4299 180.637 98.3205 180.637 96.7504V77.96ZM190 89.7872H180.637V69.4608C181.065 69.3925 181.689 69.3072 182.509 69.2048C183.365 69.0683 184.186 69 184.97 69C186.754 69 188.038 69.3072 188.823 69.9216C189.608 70.536 190 71.6795 190 73.352V89.7872ZM186.041 88.6096H165.013V81.544H186.041V88.6096Z" fill="#EF553D"/>
<path d="M155.898 73.6579C155.898 74.5391 155.676 75.3323 155.232 76.0373C154.789 76.7071 154.277 77.2359 153.697 77.6236C152.844 77.0244 151.906 76.5132 150.882 76.0902C149.858 75.6672 148.681 75.4557 147.35 75.4557C145.61 75.4557 144.126 75.8434 142.898 76.619C141.703 77.3593 140.782 78.452 140.134 79.8974C139.52 81.3074 139.213 83.0171 139.213 85.0264C139.213 88.1286 139.963 90.4904 141.465 92.112C143 93.7335 145.115 94.5443 147.811 94.5443C149.21 94.5443 150.387 94.3504 151.343 93.9627C152.332 93.5749 153.27 93.1343 154.157 92.6407C154.738 93.099 155.181 93.6807 155.488 94.3857C155.829 95.0907 156 95.9015 156 96.818C156 97.6288 155.795 98.3691 155.386 99.0389C154.976 99.7087 154.277 100.273 153.287 100.731C152.673 101.013 151.803 101.295 150.677 101.577C149.551 101.859 148.186 102 146.583 102C143.512 102 140.714 101.401 138.189 100.202C135.698 99.0036 133.702 97.1529 132.201 94.6501C130.734 92.1472 130 88.9393 130 85.0264C130 81.3603 130.717 78.2758 132.15 75.7729C133.583 73.2348 135.51 71.3136 137.933 70.0093C140.39 68.6698 143.085 68 146.02 68C148.101 68 149.875 68.2468 151.343 68.7403C152.81 69.2338 153.936 69.9036 154.72 70.7496C155.505 71.5956 155.898 72.5651 155.898 73.6579Z" fill="#EF553D"/>
<path d="M96 80.1104H104.211C104.347 81.6805 104.432 83.1824 104.466 84.616C104.534 86.0496 104.568 87.4149 104.568 88.712C104.568 89.9749 104.568 91.2208 104.568 92.4496V100.59C104.228 100.659 103.667 100.744 102.885 100.846C102.137 100.949 101.372 101 100.59 101C98.8901 101 97.7001 100.71 97.02 100.13C96.34 99.5152 96 98.44 96 96.904V80.1104ZM124 89.8384H115.789C115.585 87.4491 115.466 85.2475 115.432 83.2336C115.432 81.2197 115.432 79.3083 115.432 77.4992V69.4096C115.806 69.3413 116.367 69.256 117.115 69.1536C117.863 69.0512 118.628 69 119.41 69C121.11 69 122.3 69.3072 122.98 69.9216C123.66 70.5019 124 71.56 124 73.096V89.8384ZM124 87.0736V99.5152C123.524 99.9589 122.827 100.317 121.909 100.59C121.025 100.863 119.954 101 118.696 101C117.438 101 116.248 100.812 115.126 100.437C114.004 100.061 113.086 99.1568 112.372 97.7232L107.322 87.3808C106.982 86.664 106.659 85.9984 106.353 85.384C106.081 84.7355 105.809 84.0699 105.537 83.3872C105.265 82.7045 104.959 81.9536 104.619 81.1344L96 83.0288V71.1504C96.476 70.4677 97.207 69.9557 98.1931 69.6144C99.1791 69.2731 100.233 69.1024 101.355 69.1024C102.613 69.1024 103.803 69.3072 104.925 69.7168C106.081 70.0923 106.999 70.9797 107.679 72.3792L112.78 82.7216C113.12 83.4043 113.426 84.0699 113.698 84.7184C114.004 85.3669 114.293 86.0325 114.565 86.7152C114.871 87.3979 115.177 88.1488 115.483 88.968L124 87.0736Z" fill="#EF553D"/>
<path d="M67 77.6174H75.7865V100.527C75.4075 100.632 74.8562 100.737 74.1326 100.842C73.409 100.947 72.6337 101 71.8067 101C70.3251 101 69.1536 100.562 68.2921 99.6864C67.4307 98.8106 67 97.6196 67 96.1133V77.6174ZM75.7865 92.3826H67V73.8867C67 72.3804 67.4307 71.1894 68.2921 70.3136C69.1536 69.4379 70.3251 69 71.8067 69C72.6337 69 73.409 69.0525 74.1326 69.1576C74.8562 69.2627 75.4075 69.3678 75.7865 69.4729V92.3826ZM71.8067 88.2315V81.0854H87.4157C87.6569 81.4707 87.8637 81.9611 88.036 82.5566C88.2427 83.1522 88.3461 83.8177 88.3461 84.5534C88.3461 85.8495 88.0704 86.7953 87.5191 87.3908C86.9678 87.9513 86.2097 88.2315 85.2449 88.2315H71.8067ZM71.8067 101V93.7488H89.0697C89.3109 94.1341 89.5176 94.642 89.6899 95.2726C89.8966 95.9031 90 96.5862 90 97.3218C90 98.6179 89.7243 99.5638 89.173 100.159C88.6217 100.72 87.8637 101 86.8989 101H71.8067ZM71.8067 76.1987V69H88.8629C89.1041 69.3853 89.3109 69.8758 89.4831 70.4713C89.6899 71.0668 89.7933 71.7323 89.7933 72.468C89.7933 73.7641 89.5176 74.7099 88.9663 75.3054C88.415 75.9009 87.6569 76.1987 86.6921 76.1987H71.8067Z" fill="#EF553D"/>
<path d="M52.4495 100.401C51.9624 100.827 51.197 101.2 50.1532 101.52C49.1442 101.84 48.0309 102 46.8131 102C45.3866 102 44.1341 101.787 43.0556 101.36C42.0118 100.898 41.2985 100.276 40.9158 99.4943C40.4287 98.4992 39.8547 97.1842 39.1936 95.5493C38.5325 93.9144 37.8193 92.0662 37.0539 90.0048C36.2884 87.9435 35.523 85.811 34.7576 83.6074C33.9921 81.4039 33.2789 79.2181 32.6178 77.0501C31.9916 74.8465 31.4523 72.8207 31 70.9725C31.4871 70.475 32.1829 70.0307 33.0875 69.6397C34.0269 69.2132 35.0185 69 36.0623 69C37.3496 69 38.3934 69.2843 39.1936 69.853C40.0286 70.4216 40.6375 71.4346 41.0202 72.8918C41.9596 76.3748 42.899 79.7157 43.8384 82.9144C44.8126 86.0775 45.8215 89.3829 46.8653 92.8304H47.1784C47.8047 90.6268 48.431 88.2633 49.0572 85.7399C49.7183 83.2165 50.3793 80.6397 51.0404 78.0097C51.7015 75.3441 52.3277 72.7141 52.9192 70.1195C53.5455 69.7997 54.2239 69.5331 54.9545 69.3199C55.6852 69.1066 56.4854 69 57.3552 69C58.6425 69 59.7385 69.3021 60.6431 69.9063C61.5477 70.475 62 71.4346 62 72.7851C62 73.5315 61.826 74.6511 61.4781 76.1438C61.1302 77.6365 60.6605 79.3425 60.069 81.2617C59.4776 83.1454 58.8165 85.1002 58.0859 87.126C57.39 89.1163 56.6768 91.0178 55.9461 92.8304C55.2503 94.643 54.5892 96.2246 53.963 97.5751C53.3367 98.9257 52.8322 99.8675 52.4495 100.401Z" fill="#EF553D"/>
<path d="M13.4211 69.6289L0.301084 96.8176C-0.87032 99.2451 1.58775 101.831 4.03398 100.745L14.846 95.9437C15.5814 95.6171 16.4186 95.6171 17.154 95.9437L27.966 100.745C30.4123 101.831 32.8703 99.2451 31.6989 96.8176L18.5789 69.6289C17.5308 67.457 14.4692 67.457 13.4211 69.6289Z" fill="#EF553D"/>
<path d="M208.421 69.6289L195.301 96.8176C194.13 99.2451 196.588 101.831 199.034 100.745L209.846 95.9437C210.581 95.6171 211.419 95.6171 212.154 95.9437L222.966 100.745C225.412 101.831 227.87 99.2451 226.699 96.8176L213.579 69.6289C212.531 67.457 209.469 67.457 208.421 69.6289Z" fill="#EF553D"/>
<path d="M112.396 13.0782L101.076 36.347C99.8965 38.7724 102.38 41.3522 104.849 40.265L113.833 36.3074C114.577 35.9797 115.425 35.9797 116.169 36.3074L125.153 40.265C127.622 41.3522 130.106 38.7724 128.926 36.347L117.606 13.0782C116.549 10.9057 113.453 10.9057 112.396 13.0782Z" fill="#F7A829"/>
<path d="M139.138 28C139.138 14.669 128.331 3.86207 115 3.86207C101.669 3.86207 90.8621 14.669 90.8621 28C90.8621 41.331 101.669 52.1379 115 52.1379V56C99.536 56 87 43.464 87 28C87 12.536 99.536 0 115 0C130.464 0 143 12.536 143 28C143 43.464 130.464 56 115 56V52.1379C128.331 52.1379 139.138 41.331 139.138 28Z" fill="#F7A829"/>
</svg>
