<svg width="142" height="62" viewBox="0 0 142 62" fill="none" xmlns="http://www.w3.org/2000/svg">
<path d="M8.65556 43.9669L1.68535 58.2558C1.06302 59.5316 2.36891 60.8907 3.6685 60.3198L9.41254 57.7966C9.80325 57.6249 10.248 57.6249 10.6387 57.7966L16.3828 60.3198C17.6824 60.8907 18.9882 59.5316 18.3659 58.2558L11.3957 43.9669C10.8389 42.8255 9.21235 42.8255 8.65556 43.9669Z" fill="#7C1808"/>
<path d="M132.13 43.9669L125.16 58.2558C124.538 59.5316 125.844 60.8907 127.143 60.3198L132.887 57.7966C133.278 57.6249 133.723 57.6249 134.113 57.7966L139.857 60.3198C141.157 60.8907 142.463 59.5316 141.841 58.2558L134.87 43.9669C134.314 42.8255 132.687 42.8255 132.13 43.9669Z" fill="#7C1808"/>
<path d="M107.002 48.3536H111.893V60.6783C111.688 60.7342 111.371 60.7901 110.942 60.8459C110.514 60.9018 110.076 60.9298 109.629 60.9298C108.66 60.9298 107.98 60.7621 107.589 60.4267C107.198 60.0727 107.002 59.4672 107.002 58.6102V48.3536ZM111.893 54.8094H107.002V43.7144C107.226 43.6772 107.552 43.6306 107.98 43.5747C108.427 43.5002 108.856 43.4629 109.266 43.4629C110.197 43.4629 110.868 43.6213 111.278 43.938C111.688 44.2547 111.893 44.8696 111.893 45.7825V54.8094ZM117.259 48.3536H122.149V60.6783C121.944 60.7342 121.628 60.7901 121.199 60.8459C120.771 60.9018 120.333 60.9298 119.886 60.9298C118.917 60.9298 118.237 60.7621 117.845 60.4267C117.454 60.0727 117.259 59.4672 117.259 58.6102V48.3536ZM122.149 54.8094H117.259V43.7144C117.482 43.6772 117.808 43.6306 118.237 43.5747C118.684 43.5002 119.112 43.4629 119.522 43.4629C120.454 43.4629 121.125 43.6306 121.534 43.9659C121.944 44.3013 122.149 44.9255 122.149 45.8384V54.8094ZM120.081 54.1666H109.098V50.3099H120.081V54.1666Z" fill="#7C1808"/>
<path d="M104.338 46.2291C104.338 46.6949 104.217 47.1141 103.975 47.4867C103.733 47.8407 103.453 48.1202 103.137 48.3251C102.671 48.0084 102.159 47.7382 101.6 47.5147C101.041 47.2911 100.398 47.1793 99.6713 47.1793C98.7211 47.1793 97.9106 47.3842 97.2399 47.7941C96.5878 48.1854 96.0848 48.763 95.7308 49.5269C95.3954 50.2721 95.2277 51.1757 95.2277 52.2377C95.2277 53.8773 95.6376 55.1256 96.4574 55.9826C97.2958 56.8397 98.451 57.2682 99.9228 57.2682C100.687 57.2682 101.329 57.1657 101.851 56.9608C102.391 56.7558 102.904 56.5229 103.388 56.2621C103.705 56.5043 103.947 56.8117 104.115 57.1843C104.301 57.557 104.394 57.9855 104.394 58.4699C104.394 58.8984 104.283 59.2897 104.059 59.6437C103.835 59.9977 103.453 60.2958 102.913 60.538C102.578 60.687 102.103 60.8361 101.488 60.9851C100.873 61.1342 100.128 61.2087 99.2521 61.2087C97.5753 61.2087 96.0475 60.892 94.6688 60.2585C93.3087 59.625 92.2188 58.6469 91.399 57.3241C90.5978 56.0013 90.1973 54.3058 90.1973 52.2377C90.1973 50.3001 90.5885 48.6698 91.371 47.347C92.1536 46.0055 93.2062 44.9901 94.5291 44.3008C95.8705 43.5928 97.3424 43.2388 98.9447 43.2388C100.081 43.2388 101.05 43.3692 101.851 43.63C102.652 43.8909 103.267 44.2449 103.696 44.692C104.124 45.1392 104.338 45.6515 104.338 46.2291Z" fill="#7C1808"/>
<path d="M72.0664 49.5274H76.5659C76.6404 50.3844 76.687 51.2042 76.7056 51.9867C76.7429 52.7693 76.7615 53.5145 76.7615 54.2225C76.7615 54.9119 76.7615 55.5919 76.7615 56.2626V60.7062C76.5752 60.7435 76.2678 60.7901 75.8393 60.8459C75.4294 60.9018 75.0102 60.9298 74.5816 60.9298C73.6501 60.9298 72.998 60.7714 72.6253 60.4547C72.2527 60.1193 72.0664 59.5324 72.0664 58.694V49.5274ZM87.4093 54.8373H82.9099C82.7981 53.5331 82.7329 52.3314 82.7142 51.2322C82.7142 50.1329 82.7142 49.0896 82.7142 48.1021V43.6865C82.9192 43.6492 83.2266 43.6026 83.6365 43.5467C84.0464 43.4908 84.4656 43.4629 84.8941 43.4629C85.8257 43.4629 86.4778 43.6306 86.8504 43.9659C87.223 44.2827 87.4093 44.8602 87.4093 45.6987V54.8373ZM87.4093 53.3282V60.1193C87.1485 60.3615 86.7665 60.5572 86.2635 60.7062C85.7791 60.8553 85.1922 60.9298 84.5028 60.9298C83.8135 60.9298 83.1614 60.8273 82.5465 60.6224C81.9317 60.4174 81.4287 59.9237 81.0374 59.1412L78.2707 53.4959C78.0843 53.1046 77.9073 52.7413 77.7397 52.4059C77.5906 52.0519 77.4416 51.6886 77.2925 51.316C77.1435 50.9434 76.9758 50.5335 76.7895 50.0863L72.0664 51.1204V44.6367C72.3272 44.264 72.7278 43.9846 73.2681 43.7983C73.8084 43.6119 74.386 43.5188 75.0008 43.5188C75.6902 43.5188 76.3423 43.6306 76.9571 43.8541C77.5906 44.0591 78.0937 44.5435 78.4663 45.3074L81.261 50.9527C81.4473 51.3253 81.615 51.6886 81.764 52.0426C81.9317 52.3966 82.0901 52.7599 82.2391 53.1326C82.4068 53.5052 82.5745 53.9151 82.7422 54.3622L87.4093 53.3282Z" fill="#7C1808"/>
<path d="M56.7559 48.3533H61.5069V60.5382C61.3019 60.5941 61.0038 60.65 60.6126 60.7059C60.2213 60.7618 59.8021 60.7898 59.3549 60.7898C58.5538 60.7898 57.9203 60.5569 57.4545 60.0911C56.9888 59.6253 56.7559 58.9918 56.7559 58.1907V48.3533ZM61.5069 56.2064H56.7559V46.3691C56.7559 45.5679 56.9888 44.9345 57.4545 44.4687C57.9203 44.0029 58.5538 43.77 59.3549 43.77C59.8021 43.77 60.2213 43.798 60.6126 43.8539C61.0038 43.9098 61.3019 43.9656 61.5069 44.0215V56.2064ZM59.3549 53.9986V50.1978H67.7949C67.9254 50.4028 68.0371 50.6636 68.1303 50.9804C68.2421 51.2971 68.298 51.6511 68.298 52.0423C68.298 52.7317 68.1489 53.2347 67.8508 53.5515C67.5527 53.8496 67.1428 53.9986 66.6212 53.9986H59.3549ZM59.3549 60.7898V56.9331H68.6892C68.8197 57.138 68.9315 57.4082 69.0246 57.7435C69.1364 58.0789 69.1923 58.4422 69.1923 58.8335C69.1923 59.5228 69.0432 60.0259 68.7451 60.3426C68.447 60.6407 68.0371 60.7898 67.5155 60.7898H59.3549ZM59.3549 47.5988V43.77H68.5775C68.7079 43.975 68.8197 44.2358 68.9128 44.5525C69.0246 44.8693 69.0805 45.2233 69.0805 45.6145C69.0805 46.3039 68.9315 46.8069 68.6333 47.1237C68.3352 47.4404 67.9254 47.5988 67.4037 47.5988H59.3549Z" fill="#7C1808"/>
<path d="M49.1894 60.1468C48.9285 60.3704 48.5186 60.566 47.9597 60.7337C47.4194 60.9014 46.8232 60.9853 46.1711 60.9853C45.4072 60.9853 44.7365 60.8735 44.1589 60.6499C43.5999 60.4077 43.218 60.0816 43.0131 59.6717C42.7522 59.1501 42.4448 58.4607 42.0908 57.6037C41.7368 56.7466 41.3549 55.7778 40.945 54.6972C40.5351 53.6165 40.1252 52.4987 39.7153 51.3435C39.3054 50.1884 38.9235 49.0426 38.5695 47.906C38.2341 46.7509 37.9453 45.6889 37.7031 44.7201C37.964 44.4592 38.3366 44.2263 38.821 44.0214C39.3241 43.7978 39.855 43.686 40.414 43.686C41.1033 43.686 41.6623 43.8351 42.0908 44.1332C42.538 44.4313 42.864 44.9623 43.069 45.7262C43.572 47.552 44.075 49.3034 44.5781 50.9802C45.0998 52.6384 45.6401 54.3711 46.199 56.1784H46.3667C46.7021 55.0232 47.0374 53.7842 47.3728 52.4614C47.7268 51.1386 48.0808 49.7878 48.4348 48.4091C48.7888 47.0117 49.1241 45.633 49.4409 44.2729C49.7762 44.1052 50.1396 43.9655 50.5308 43.8537C50.9221 43.7419 51.3506 43.686 51.8164 43.686C52.5057 43.686 53.0926 43.8444 53.577 44.1611C54.0615 44.4592 54.3037 44.9623 54.3037 45.6703C54.3037 46.0615 54.2105 46.6484 54.0242 47.4309C53.8379 48.2135 53.5864 49.1078 53.2696 50.1139C52.9529 51.1013 52.5989 52.126 52.2076 53.188C51.835 54.2314 51.4531 55.2282 51.0618 56.1784C50.6892 57.1286 50.3352 57.9577 49.9998 58.6656C49.6645 59.3736 49.3943 59.8674 49.1894 60.1468Z" fill="#7C1808"/>
<path d="M31.6274 52.2939C31.6274 51.176 31.4504 50.2444 31.0964 49.4992C30.7424 48.7539 30.2394 48.195 29.5873 47.8223C28.9538 47.4311 28.1992 47.2355 27.3236 47.2355C27.0627 47.2355 26.7926 47.2448 26.5131 47.2634C26.2523 47.282 25.9821 47.31 25.7026 47.3472V57.0728C25.9076 57.1101 26.1591 57.1473 26.4572 57.1846C26.7739 57.2032 27.0534 57.2125 27.2956 57.2125C28.5625 57.2125 29.5966 56.8027 30.3977 55.9829C31.2175 55.1631 31.6274 53.9334 31.6274 52.2939ZM36.6579 52.21C36.6579 54.2036 36.2666 55.8618 35.4841 57.1846C34.7016 58.5074 33.6023 59.5042 32.1863 60.1749C30.789 60.827 29.1494 61.1531 27.2677 61.1531C26.6342 61.1531 25.8424 61.1065 24.8922 61.0133C23.9606 60.9202 23.1222 60.7339 22.3769 60.4544C21.3522 60.0631 20.8398 59.3831 20.8398 58.4143V45.363C20.8398 44.9717 20.9516 44.6736 21.1752 44.4687C21.3988 44.2451 21.6876 44.0681 22.0416 43.9377C22.8427 43.6769 23.6904 43.5092 24.5847 43.4347C25.4791 43.3415 26.2802 43.2949 26.9882 43.2949C28.9259 43.2949 30.612 43.621 32.0466 44.2731C33.4999 44.9065 34.627 45.8847 35.4282 47.2075C36.248 48.5117 36.6579 50.1792 36.6579 52.21Z" fill="#7C1808"/>
<path d="M105.748 47.0983H110.639V59.4229C110.434 59.4788 110.117 59.5347 109.689 59.5906C109.26 59.6465 108.822 59.6744 108.375 59.6744C107.406 59.6744 106.726 59.5067 106.335 59.1714C105.944 58.8174 105.748 58.2119 105.748 57.3548V47.0983ZM110.639 53.554H105.748V42.459C105.972 42.4218 106.298 42.3752 106.726 42.3193C107.173 42.2448 107.602 42.2075 108.012 42.2075C108.943 42.2075 109.614 42.3659 110.024 42.6826C110.434 42.9994 110.639 43.6142 110.639 44.5271V53.554ZM116.005 47.0983H120.895V59.4229C120.69 59.4788 120.374 59.5347 119.945 59.5906C119.517 59.6465 119.079 59.6744 118.632 59.6744C117.663 59.6744 116.983 59.5067 116.591 59.1714C116.2 58.8174 116.005 58.2119 116.005 57.3548V47.0983ZM120.895 53.554H116.005V42.459C116.228 42.4218 116.554 42.3752 116.983 42.3193C117.43 42.2448 117.858 42.2075 118.268 42.2075C119.2 42.2075 119.871 42.3752 120.281 42.7106C120.69 43.0459 120.895 43.6701 120.895 44.583V53.554ZM118.827 52.9112H107.844V49.0545H118.827V52.9112Z" fill="#EF553D"/>
<path d="M103.085 44.9742C103.085 45.44 102.963 45.8592 102.721 46.2318C102.479 46.5858 102.2 46.8653 101.883 47.0702C101.417 46.7535 100.905 46.4834 100.346 46.2598C99.7868 46.0362 99.144 45.9244 98.4174 45.9244C97.4672 45.9244 96.6567 46.1294 95.986 46.5393C95.3339 46.9305 94.8309 47.5081 94.4769 48.272C94.1415 49.0172 93.9738 49.9208 93.9738 50.9828C93.9738 52.6224 94.3837 53.8707 95.2035 54.7277C96.0419 55.5848 97.197 56.0133 98.6689 56.0133C99.4328 56.0133 100.076 55.9108 100.597 55.7059C101.138 55.5009 101.65 55.268 102.134 55.0072C102.451 55.2494 102.693 55.5568 102.861 55.9295C103.047 56.3021 103.14 56.7306 103.14 57.215C103.14 57.6435 103.029 58.0348 102.805 58.3888C102.582 58.7428 102.2 59.0409 101.659 59.2831C101.324 59.4322 100.849 59.5812 100.234 59.7303C99.6191 59.8793 98.8739 59.9538 97.9982 59.9538C96.3214 59.9538 94.7936 59.6371 93.4149 59.0036C92.0548 58.3702 90.9649 57.392 90.1451 56.0692C89.3439 54.7464 88.9434 53.0509 88.9434 50.9828C88.9434 49.0452 89.3346 47.4149 90.1171 46.0921C90.8997 44.7506 91.9523 43.7352 93.2751 43.0459C94.6166 42.3379 96.0885 41.9839 97.6908 41.9839C98.8273 41.9839 99.7961 42.1143 100.597 42.3751C101.398 42.636 102.013 42.99 102.442 43.4371C102.87 43.8843 103.085 44.3966 103.085 44.9742Z" fill="#EF553D"/>
<path d="M70.8125 48.272H75.312C75.3865 49.1291 75.4331 49.9488 75.4517 50.7314C75.489 51.5139 75.5076 52.2591 75.5076 52.9671C75.5076 53.6565 75.5076 54.3365 75.5076 55.0073V59.4508C75.3213 59.4881 75.0139 59.5347 74.5854 59.5906C74.1755 59.6465 73.7563 59.6744 73.3277 59.6744C72.3962 59.6744 71.7441 59.5161 71.3714 59.1993C70.9988 58.864 70.8125 58.2771 70.8125 57.4387V48.272ZM86.1554 53.582H81.656C81.5442 52.2778 81.479 51.076 81.4603 49.9768C81.4603 48.8775 81.4603 47.8342 81.4603 46.8467V42.4311C81.6653 42.3938 81.9727 42.3473 82.3826 42.2914C82.7925 42.2355 83.2117 42.2075 83.6402 42.2075C84.5718 42.2075 85.2239 42.3752 85.5965 42.7106C85.9691 43.0273 86.1554 43.6049 86.1554 44.4433V53.582ZM86.1554 52.0728V58.864C85.8946 59.1062 85.5126 59.3018 85.0096 59.4508C84.5252 59.5999 83.9383 59.6744 83.2489 59.6744C82.5596 59.6744 81.9075 59.5719 81.2926 59.367C80.6778 59.1621 80.1748 58.6683 79.7835 57.8858L77.0167 52.2405C76.8304 51.8492 76.6534 51.4859 76.4857 51.1506C76.3367 50.7966 76.1876 50.4333 76.0386 50.0606C75.8895 49.688 75.7219 49.2781 75.5356 48.831L70.8125 49.865V43.3813C71.0733 43.0087 71.4739 42.7292 72.0142 42.5429C72.5545 42.3566 73.1321 42.2634 73.7469 42.2634C74.4363 42.2634 75.0884 42.3752 75.7032 42.5988C76.3367 42.8037 76.8397 43.2881 77.2124 44.052L80.0071 49.6973C80.1934 50.07 80.3611 50.4333 80.5101 50.7873C80.6778 51.1413 80.8362 51.5046 80.9852 51.8772C81.1529 52.2498 81.3206 52.6597 81.4883 53.1069L86.1554 52.0728Z" fill="#EF553D"/>
<path d="M55.502 47.0984H60.253V59.2834C60.048 59.3393 59.7499 59.3951 59.3586 59.451C58.9674 59.5069 58.5482 59.5349 58.101 59.5349C57.2999 59.5349 56.6664 59.302 56.2006 58.8362C55.7348 58.3704 55.502 57.737 55.502 56.9358V47.0984ZM60.253 54.9516H55.502V45.1142C55.502 44.3131 55.7348 43.6796 56.2006 43.2138C56.6664 42.748 57.2999 42.5151 58.101 42.5151C58.5482 42.5151 58.9674 42.5431 59.3586 42.599C59.7499 42.6549 60.048 42.7108 60.253 42.7667V54.9516ZM58.101 52.7438V48.943H66.541C66.6715 49.1479 66.7832 49.4087 66.8764 49.7255C66.9882 50.0422 67.0441 50.3962 67.0441 50.7875C67.0441 51.4768 66.895 51.9799 66.5969 52.2966C66.2988 52.5947 65.8889 52.7438 65.3673 52.7438H58.101ZM58.101 59.5349V55.6782H67.4353C67.5658 55.8831 67.6775 56.1533 67.7707 56.4887C67.8825 56.824 67.9384 57.1873 67.9384 57.5786C67.9384 58.2679 67.7893 58.771 67.4912 59.0877C67.1931 59.3858 66.7832 59.5349 66.2616 59.5349H58.101ZM58.101 46.3439V42.5151H67.3236C67.454 42.7201 67.5658 42.9809 67.6589 43.2977C67.7707 43.6144 67.8266 43.9684 67.8266 44.3596C67.8266 45.049 67.6775 45.552 67.3794 45.8688C67.0813 46.1855 66.6715 46.3439 66.1498 46.3439H58.101Z" fill="#EF553D"/>
<path d="M47.9354 58.892C47.6746 59.1155 47.2647 59.3112 46.7058 59.4788C46.1655 59.6465 45.5693 59.7304 44.9172 59.7304C44.1533 59.7304 43.4826 59.6186 42.905 59.395C42.346 59.1528 41.9641 58.8267 41.7592 58.4169C41.4983 57.8952 41.1909 57.2058 40.8369 56.3488C40.4829 55.4917 40.101 54.5229 39.6911 53.4423C39.2812 52.3617 38.8713 51.2438 38.4614 50.0886C38.0515 48.9335 37.6696 47.7877 37.3156 46.6512C36.9802 45.496 36.6914 44.434 36.4492 43.4652C36.7101 43.2044 37.0827 42.9715 37.5671 42.7665C38.0701 42.5429 38.6011 42.4312 39.1601 42.4312C39.8494 42.4312 40.4084 42.5802 40.8369 42.8783C41.2841 43.1764 41.6101 43.7074 41.815 44.4713C42.3181 46.2972 42.8211 48.0485 43.3242 49.7253C43.8459 51.3835 44.3862 53.1162 44.9451 54.9235H45.1128C45.4482 53.7683 45.7835 52.5293 46.1189 51.2065C46.4729 49.8837 46.8269 48.5329 47.1809 47.1542C47.5349 45.7568 47.8702 44.3781 48.187 43.018C48.5223 42.8504 48.8856 42.7106 49.2769 42.5988C49.6682 42.487 50.0967 42.4312 50.5625 42.4312C51.2518 42.4312 51.8387 42.5895 52.3231 42.9063C52.8075 43.2044 53.0498 43.7074 53.0498 44.4154C53.0498 44.8067 52.9566 45.3935 52.7703 46.1761C52.584 46.9586 52.3324 47.8529 52.0157 48.859C51.699 49.8464 51.345 50.8712 50.9537 51.9331C50.5811 52.9765 50.1992 53.9733 49.8079 54.9235C49.4353 55.8737 49.0813 56.7028 48.7459 57.4108C48.4105 58.1188 48.1404 58.6125 47.9354 58.892Z" fill="#EF553D"/>
<path d="M30.3735 51.0385C30.3735 49.9206 30.1965 48.989 29.8425 48.2438C29.4885 47.4985 28.9855 46.9396 28.3334 46.567C27.6999 46.1757 26.9453 45.9801 26.0696 45.9801C25.8088 45.9801 25.5387 45.9894 25.2592 46.008C24.9983 46.0267 24.7282 46.0546 24.4487 46.0919V55.8174C24.6537 55.8547 24.9052 55.892 25.2033 55.9292C25.52 55.9479 25.7995 55.9572 26.0417 55.9572C27.3086 55.9572 28.3427 55.5473 29.1438 54.7275C29.9636 53.9077 30.3735 52.6781 30.3735 51.0385ZM35.404 50.9547C35.404 52.9482 35.0127 54.6064 34.2302 55.9292C33.4477 57.2521 32.3484 58.2488 30.9324 58.9196C29.5351 59.5717 27.8955 59.8977 26.0138 59.8977C25.3803 59.8977 24.5885 59.8511 23.6383 59.758C22.7067 59.6648 21.8683 59.4785 21.123 59.199C20.0983 58.8078 19.5859 58.1277 19.5859 57.1589V44.1076C19.5859 43.7164 19.6977 43.4183 19.9213 43.2133C20.1449 42.9897 20.4337 42.8128 20.7877 42.6823C21.5888 42.4215 22.4365 42.2538 23.3308 42.1793C24.2251 42.0861 25.0263 42.0396 25.7343 42.0396C27.6719 42.0396 29.3581 42.3656 30.7927 43.0177C32.2459 43.6512 33.3731 44.6293 34.1743 45.9521C34.9941 47.2563 35.404 48.9238 35.404 50.9547Z" fill="#EF553D"/>
<path d="M7.13017 42.9508L0.159956 57.2397C-0.462371 58.5155 0.843516 59.8746 2.14311 59.3037L7.88715 56.7804C8.27786 56.6088 8.72262 56.6088 9.11333 56.7804L14.8574 59.3037C16.157 59.8746 17.4629 58.5155 16.8405 57.2397L9.87031 42.9508C9.31352 41.8094 7.68696 41.8094 7.13017 42.9508Z" fill="#EC523D"/>
<path d="M68.6128 6.88291L62.6553 19.1287C62.0344 20.4051 63.3416 21.7628 64.6406 21.1906L69.369 19.1079C69.7606 18.9354 70.2065 18.9354 70.598 19.1079L75.3265 21.1906C76.6255 21.7628 77.9327 20.4051 77.3117 19.1287L71.3543 6.88291C70.7981 5.73955 69.169 5.73955 68.6128 6.88291Z" fill="#F7A829"/>
<path d="M130.605 42.9508L123.635 57.2397C123.012 58.5155 124.318 59.8746 125.618 59.3037L131.362 56.7804C131.752 56.6088 132.197 56.6088 132.588 56.7804L138.332 59.3037C139.632 59.8746 140.937 58.5155 140.315 57.2397L133.345 42.9508C132.788 41.8094 131.162 41.8094 130.605 42.9508Z" fill="#EC523D"/>
<path d="M82.687 14.7357C82.687 7.71993 76.9995 2.03251 69.9838 2.03251C62.968 2.03251 57.2806 7.71993 57.2806 14.7357C57.2806 21.7515 62.968 27.4389 69.9838 27.4389V29.4714C61.8454 29.4714 55.248 22.874 55.248 14.7357C55.248 6.5974 61.8454 0 69.9838 0C78.1221 0 84.7195 6.5974 84.7195 14.7357C84.7195 22.874 78.1221 29.4714 69.9838 29.4714V27.4389C76.9995 27.4389 82.687 21.7515 82.687 14.7357Z" fill="#F7A829"/>
</svg>
