<svg width="376" height="333" viewBox="0 0 376 333" fill="none" xmlns="http://www.w3.org/2000/svg">
<path d="M1 213.111C12.5796 223.168 40.9941 235.449 62.0154 204.125C88.2922 164.969 126.148 129.664 145.745 139.293C165.341 148.921 183.601 185.51 204.088 181.016C224.575 176.523 257.087 204.125 275.347 242.639C293.607 281.153 359.967 335.073 376 331.863M376 286.288C351.653 278.157 299.397 250.342 285.145 204.125C267.33 146.354 231.701 140.576 208.987 127.097C186.273 113.617 162.223 100.779 156.433 64.1902C151.802 34.9194 137.58 9.20059 131.048 0M159.106 0C169.498 28.2437 200.169 85.8864 239.717 90.5081C289.153 96.2852 290.044 163.043 314.985 185.51C339.925 207.976 348.833 224.666 376 242.639M376 213.753C371.249 209.902 361.303 198.861 359.521 185.51C357.295 168.82 343.933 157.908 333.245 150.847C322.556 143.786 303.405 137.367 306.523 100.779C309.64 64.1902 312.312 61.6225 311.867 41.0817C311.422 20.5408 327.9 -7.70282 346.16 10.9123C364.42 29.5275 363.084 23.1085 376 43.6493M376 66.7578C370.656 60.9806 358.096 49.1697 350.614 48.1426C341.261 46.8588 331.018 50.7102 333.245 70.6092C335.471 90.5081 346.606 118.752 359.521 127.097C369.854 133.772 374.812 138.009 376 139.293M301.178 0C297.764 24.3923 282.473 69.0686 248.625 52.6359C214.777 36.2032 197.11 10.6984 192.508 0M1 76.3863C9.462 84.517 29.9489 101.677 44.2007 105.272C62.0154 109.765 79.3848 96.9271 74.9311 67.3997C70.4774 37.8722 42.8646 18.6151 36.1841 0M65.133 0C77.0095 11.5542 98.5356 47.3723 89.6283 98.2109C78.4941 161.759 23.7138 123.245 1 114.258M1 152.773C8.27435 167.964 30.038 191.672 58.8979 164.969C94.9727 131.59 103.88 130.948 120.359 105.272C136.837 79.5958 119.023 37.2303 107.888 18.6151C106.701 16.0475 100.584 8.72986 85.62 0" stroke="url(#paint0_linear_280_572)" stroke-width="2"/>
<defs>
<linearGradient id="paint0_linear_280_572" x1="188.5" y1="0" x2="188" y2="308" gradientUnits="userSpaceOnUse">
<stop stop-color="#1D9FCE"/>
<stop offset="1" stop-color="#061831"/>
</linearGradient>
</defs>
</svg>
