<svg width="376" height="371" viewBox="0 0 376 371" fill="none" xmlns="http://www.w3.org/2000/svg">
<path d="M31.1388 463C31.8802 451.315 39.0569 428.131 61.8327 428.879C65.688 429.19 75.8897 427.476 85.8541 418.128C98.3096 406.443 109.431 423.737 105.872 433.553C103.025 441.405 92.8233 456.456 88.0783 463M3.11388 463C9.19336 441.655 29.8043 400.273 63.6121 405.508C71.6192 407.845 90.8363 406.069 103.648 380.267C116.459 354.466 127.966 360.168 132.117 366.245C135.528 372.789 142.705 390.831 144.128 410.649C145.552 430.468 126.335 453.807 116.548 463M0 416.258C6.6726 404.105 28.3808 380.641 61.8327 384.007C70.1364 385.097 88.79 379.987 96.9751 350.82C105.16 321.653 126.186 326.203 135.676 332.123C142.497 337.576 157.829 356.99 164.591 391.018C173.043 433.553 169.484 452.717 158.363 463M218.416 463C212.189 454.898 198.665 430.748 194.395 398.964C190.125 367.179 180.457 341.16 176.157 332.123C170.819 320.905 154.27 298.282 130.783 297.534C107.295 296.786 96.382 269.801 93.8612 256.402C92.675 247.365 83.8968 228.637 58.274 226.019C32.6512 223.402 8.74852 205.609 0 197.04M0 227.889C8.30368 225.085 27.4021 223.776 37.3665 240.977C49.8221 262.478 65.8363 268.554 73.8434 276.033C81.8505 283.512 87.6335 309.22 83.6299 323.71C79.6263 338.2 71.1744 363.908 44.0391 357.364C22.331 352.129 5.63464 369.517 0 378.865M0 337.732C4.30012 329.63 16.9929 315.857 33.363 325.579C47.9088 334.218 53.9318 334.148 55.6136 332.713C55.9846 332.396 56.2464 331.967 56.5878 331.619C60.5185 327.611 65.2343 315.681 56.0498 295.665C51.6014 286.316 39.3238 266.778 25.8007 263.413C8.8968 259.206 7.11744 257.336 0 265.283M255.338 463C244.662 447.575 223.043 407.658 221.975 371.386C220.641 326.047 201.068 297.067 170.374 288.186C139.68 279.305 104.982 232.563 116.548 202.649C128.114 172.734 135.676 143.754 135.676 114.307C135.676 84.8594 173.932 65.2279 188.612 65.6953C203.292 66.1627 225.089 66.6301 251.335 118.513C277.58 170.397 324.288 152.635 349.644 175.538C369.929 193.861 375 201.246 375 202.649M375 244.716C369.217 233.966 353.559 210.034 337.189 200.311C316.726 188.159 303.381 182.55 281.584 202.649C259.786 222.748 268.683 235.368 233.096 231.628C197.509 227.889 201.068 230.694 184.609 229.759C168.149 228.824 169.929 207.79 179.27 202.649C188.612 197.507 213.523 207.323 230.872 197.04C248.221 186.756 252.669 160.114 230.872 131.601C209.075 103.089 198.843 87.6639 184.609 96.0774C170.374 104.491 161.922 109.165 164.591 146.558C167.26 183.952 147.687 189.561 147.687 202.649C147.687 215.736 147.242 249.39 184.609 254.064C221.975 258.739 213.968 256.402 236.655 256.402C259.342 256.402 275.801 258.739 300.267 231.628C319.84 209.94 358.244 261.543 375 290.056M354.982 463C353.055 459.416 346.797 450.38 337.189 442.901C325.178 433.553 324.733 414.389 330.961 408.312C337.189 402.236 341.637 395.225 375 408.312M322.064 463C319.395 460.196 298.932 446.64 298.488 413.454C298.043 380.267 292.26 361.103 277.135 346.613C262.011 332.123 265.125 301.741 293.594 304.546C322.064 307.35 343.416 348.95 358.096 356.429C369.84 362.412 374.259 368.893 375 371.386M375 329.319C365.658 316.698 342.616 288.56 325.178 276.968C303.381 262.478 294.039 278.37 285.587 280.707C277.135 283.044 266.904 282.11 250 283.512C233.096 284.914 220.641 296.599 229.982 316.698C239.324 336.797 265.569 354.092 268.238 377.93C270.907 401.768 272.687 415.323 271.797 426.541C271.085 435.516 282.177 454.587 287.811 463M0 168.527C21.6489 187.38 71.4413 213.306 97.4199 166.19C101.72 158.088 110.587 134.686 111.655 105.893C112.989 69.902 159.698 49.8031 173.043 44.6615C186.388 39.5199 218.416 32.9761 238.879 56.8143C259.342 80.6526 281.584 106.828 303.381 121.785C325.178 136.743 362.544 138.145 375 152.167M26.6904 103.556C25.6338 89.1229 37.8521 79.909 44.285 77.002C44.4203 76.9409 44.5539 76.8949 44.6964 76.8533C56.631 73.367 68.113 50.3394 76.9573 61.9559C85.8541 73.6413 80.9609 84.3919 78.2918 91.8706C75.6228 99.3493 53.8256 119.448 45.8185 123.188C37.8114 126.927 28.0249 121.785 26.6904 103.556ZM25.3559 68.0323C18.0902 74.2646 4.7153 92.712 9.34164 116.644C15.1246 146.558 23.1317 160.581 40.0356 163.385C56.9395 166.19 77.847 158.711 84.0747 120.383C90.3025 82.0549 99.1993 57.2817 112.989 48.4008C126.779 39.5199 145.463 30.1715 144.128 18.9535C142.794 7.7355 141.904 -4.88477 116.548 3.99616C91.1922 12.8771 100.089 23.6277 68.5053 41.857C36.9217 60.0862 30.9837 61.9559 25.3559 68.0323Z" stroke="url(#paint0_linear_280_569)" stroke-width="2"/>
<defs>
<linearGradient id="paint0_linear_280_569" x1="187" y1="114.499" x2="187.265" y2="463" gradientUnits="userSpaceOnUse">
<stop stop-color="#061831"/>
<stop offset="1" stop-color="#1D9FCE"/>
</linearGradient>
</defs>
</svg>
