<svg width="376" height="371" viewBox="0 0 376 371" fill="none" xmlns="http://www.w3.org/2000/svg">
<path d="M32.1388 463C32.8802 451.315 40.0569 428.131 62.8327 428.879C66.688 429.19 76.8897 427.476 86.8541 418.128C99.3096 406.443 110.431 423.737 106.872 433.553C104.025 441.405 93.8233 456.456 89.0783 463M4.11388 463C10.1934 441.655 30.8043 400.273 64.6121 405.508C72.6192 407.845 91.8363 406.069 104.648 380.267C117.459 354.466 128.966 360.168 133.117 366.245C136.528 372.789 143.705 390.831 145.128 410.649C146.552 430.468 127.335 453.807 117.548 463M1 416.258C7.6726 404.105 29.3808 380.641 62.8327 384.007C71.1364 385.097 89.79 379.987 97.9751 350.82C106.16 321.653 127.186 326.203 136.676 332.123C143.497 337.576 158.829 356.99 165.591 391.018C174.043 433.553 170.484 452.717 159.363 463M219.416 463C213.189 454.898 199.665 430.748 195.395 398.964C191.125 367.179 181.457 341.16 177.157 332.123C171.819 320.905 155.27 298.282 131.783 297.534C108.295 296.786 97.382 269.801 94.8612 256.402C93.675 247.365 84.8968 228.637 59.274 226.019C33.6512 223.402 9.74852 205.609 1 197.04M1 227.889C9.30368 225.085 28.4021 223.776 38.3665 240.977C50.8221 262.478 66.8363 268.554 74.8434 276.033C82.8505 283.512 88.6335 309.22 84.6299 323.71C80.6263 338.2 72.1744 363.908 45.0391 357.364C23.331 352.129 6.63464 369.517 1 378.865M1 337.732C5.30012 329.63 17.9929 315.857 34.363 325.579C48.9088 334.218 54.9318 334.148 56.6136 332.713C56.9846 332.396 57.2464 331.967 57.5878 331.619C61.5185 327.611 66.2343 315.681 57.0498 295.665C52.6014 286.316 40.3238 266.778 26.8007 263.413C9.8968 259.206 8.11744 257.336 1 265.283M256.338 463C245.662 447.575 224.043 407.658 222.975 371.386C221.641 326.047 202.068 297.067 171.374 288.186C140.68 279.305 105.982 232.563 117.548 202.649C129.114 172.734 136.676 143.754 136.676 114.307C136.676 84.8594 174.932 65.2279 189.612 65.6953C204.292 66.1627 226.089 66.6301 252.335 118.513C278.58 170.397 325.288 152.635 350.644 175.538C370.929 193.861 376 201.246 376 202.649M376 244.716C370.217 233.966 354.559 210.034 338.189 200.311C317.726 188.159 304.381 182.55 282.584 202.649C260.786 222.748 269.683 235.368 234.096 231.628C198.509 227.889 202.068 230.694 185.609 229.759C169.149 228.824 170.929 207.79 180.27 202.649C189.612 197.507 214.523 207.323 231.872 197.04C249.221 186.756 253.669 160.114 231.872 131.601C210.075 103.089 199.843 87.6639 185.609 96.0774C171.374 104.491 162.922 109.165 165.591 146.558C168.26 183.952 148.687 189.561 148.687 202.649C148.687 215.736 148.242 249.39 185.609 254.064C222.975 258.739 214.968 256.402 237.655 256.402C260.342 256.402 276.801 258.739 301.267 231.628C320.84 209.94 359.244 261.543 376 290.056M355.982 463C354.055 459.416 347.797 450.38 338.189 442.901C326.178 433.553 325.733 414.389 331.961 408.312C338.189 402.236 342.637 395.225 376 408.312M323.064 463C320.395 460.196 299.932 446.64 299.488 413.454C299.043 380.267 293.26 361.103 278.135 346.613C263.011 332.123 266.125 301.741 294.594 304.546C323.064 307.35 344.416 348.95 359.096 356.429C370.84 362.412 375.259 368.893 376 371.386M376 329.319C366.658 316.698 343.616 288.56 326.178 276.968C304.381 262.478 295.039 278.37 286.587 280.707C278.135 283.044 267.904 282.11 251 283.512C234.096 284.914 221.641 296.599 230.982 316.698C240.324 336.797 266.569 354.092 269.238 377.93C271.907 401.768 273.687 415.323 272.797 426.541C272.085 435.516 283.177 454.587 288.811 463M1 168.527C22.6489 187.38 72.4413 213.306 98.4199 166.19C102.72 158.088 111.587 134.686 112.655 105.893C113.989 69.902 160.698 49.8031 174.043 44.6615C187.388 39.5199 219.416 32.9761 239.879 56.8143C260.342 80.6526 282.584 106.828 304.381 121.785C326.178 136.743 363.544 138.145 376 152.167M27.6904 103.556C26.6338 89.1229 38.8521 79.909 45.285 77.002C45.4203 76.9409 45.5539 76.8949 45.6964 76.8533C57.631 73.367 69.113 50.3394 77.9573 61.9559C86.8541 73.6413 81.9609 84.3919 79.2918 91.8706C76.6228 99.3493 54.8256 119.448 46.8185 123.188C38.8114 126.927 29.0249 121.785 27.6904 103.556ZM26.3559 68.0323C19.0902 74.2646 5.7153 92.712 10.3416 116.644C16.1246 146.558 24.1317 160.581 41.0356 163.385C57.9395 166.19 78.847 158.711 85.0747 120.383C91.3025 82.0549 100.199 57.2817 113.989 48.4008C127.779 39.5199 146.463 30.1715 145.128 18.9535C143.794 7.7355 142.904 -4.88477 117.548 3.99616C92.1922 12.8771 101.089 23.6277 69.5053 41.857C37.9217 60.0862 31.9837 61.9559 26.3559 68.0323Z" stroke="url(#paint0_linear_280_570)" stroke-width="2"/>
<defs>
<linearGradient id="paint0_linear_280_570" x1="188" y1="114.499" x2="188.265" y2="463" gradientUnits="userSpaceOnUse">
<stop stop-color="#061831"/>
<stop offset="1" stop-color="#1D9FCE"/>
</linearGradient>
</defs>
</svg>
