<svg width="376" height="333" viewBox="0 0 376 333" fill="none" xmlns="http://www.w3.org/2000/svg">
<path d="M0 213.111C11.5796 223.168 39.9941 235.449 61.0154 204.125C87.2922 164.969 125.148 129.664 144.745 139.293C164.341 148.921 182.601 185.51 203.088 181.016C223.575 176.523 256.087 204.125 274.347 242.639C292.607 281.153 358.967 335.073 375 331.863M375 286.288C350.653 278.157 298.397 250.342 284.145 204.125C266.33 146.354 230.701 140.576 207.987 127.097C185.273 113.617 161.223 100.779 155.433 64.1902C150.802 34.9194 136.58 9.20059 130.048 0M158.106 0C168.498 28.2437 199.169 85.8864 238.717 90.5081C288.153 96.2852 289.044 163.043 313.985 185.51C338.925 207.976 347.833 224.666 375 242.639M375 213.753C370.249 209.902 360.303 198.861 358.521 185.51C356.295 168.82 342.933 157.908 332.245 150.847C321.556 143.786 302.405 137.367 305.523 100.779C308.64 64.1902 311.312 61.6225 310.867 41.0817C310.422 20.5408 326.9 -7.70282 345.16 10.9123C363.42 29.5275 362.084 23.1085 375 43.6493M375 66.7578C369.656 60.9806 357.096 49.1697 349.614 48.1426C340.261 46.8588 330.018 50.7102 332.245 70.6092C334.471 90.5081 345.606 118.752 358.521 127.097C368.854 133.772 373.812 138.009 375 139.293M300.178 0C296.764 24.3923 281.473 69.0686 247.625 52.6359C213.777 36.2032 196.11 10.6984 191.508 0M0 76.3863C8.462 84.517 28.9489 101.677 43.2007 105.272C61.0154 109.765 78.3848 96.9271 73.9311 67.3997C69.4774 37.8722 41.8646 18.6151 35.1841 0M64.133 0C76.0095 11.5542 97.5356 47.3723 88.6283 98.2109C77.4941 161.759 22.7138 123.245 0 114.258M0 152.773C7.27435 167.964 29.038 191.672 57.8979 164.969C93.9727 131.59 102.88 130.948 119.359 105.272C135.837 79.5958 118.023 37.2303 106.888 18.6151C105.701 16.0475 99.5843 8.72986 84.62 0" stroke="url(#paint0_linear_280_571)" stroke-width="2"/>
<defs>
<linearGradient id="paint0_linear_280_571" x1="187.5" y1="0" x2="187" y2="308" gradientUnits="userSpaceOnUse">
<stop stop-color="#1D9FCE"/>
<stop offset="1" stop-color="#061831"/>
</linearGradient>
</defs>
</svg>
